<svg xmlns="http://www.w3.org/2000/svg"
    viewBox="0 0 71.152 69.415">
    <g id="lieu_logo_dark" transform="translate(0 -1.001)">
        <g id="Raggruppa_4" data-name="Raggruppa 4" transform="translate(0 1.001)">
            <g id="Raggruppa_3" data-name="Raggruppa 3">
                <g id="Raggruppa_2" data-name="Raggruppa 2">
                    <path id="Tracciato_1" data-name="Tracciato 1"
                        d="M61.915,1V2.609h7.637v66.18H61.915V70.4h9.237V1ZM0,1.02v69.4H9.238V68.808H1.6V2.628H9.238V1.02Z"
                        transform="translate(0 -1.001)" fill-rule="evenodd" />
                    <path id="Tracciato_2" data-name="Tracciato 2"
                        d="M67.166,6.255V66.41H5.254V6.255H67.166Z"
                        transform="translate(-0.635 -1.636)" fill-rule="evenodd" />
                    <path id="Tracciato_3" data-name="Tracciato 3"
                        d="M19.31,49.462V37.734h2.513v9.434h5.35v2.295Zm9.685,0h2.513V37.734H29Zm5.383,0V37.734h8.437v2.178H36.892v2.547h4.843v2.178H36.892v2.649H42.9v2.177Z"
                        transform="translate(-2.334 -5.441)" fill="#fff" fill-rule="evenodd" />
                    <g id="Raggruppa_1" data-name="Raggruppa 1"
                        transform="translate(35.905 32.293)">
                        <path id="Tracciato_4" data-name="Tracciato 4"
                            d="M56.41,47.464a5.159,5.159,0,0,1-3.754,1.274A5.136,5.136,0,0,1,48.9,47.455a4.872,4.872,0,0,1-1.308-3.644V36.774h2.514v6.75a3.224,3.224,0,0,0,.649,2.169,2.765,2.765,0,0,0,3.789,0,3.2,3.2,0,0,0,.658-2.167v-6.75h2.514v7.037a4.866,4.866,0,0,1-1.308,3.652m4.6,1.241a1.5,1.5,0,0,1-1.08-.44,1.509,1.509,0,0,1,0-2.159,1.505,1.505,0,0,1,1.08-.44,1.535,1.535,0,0,1,1.106.431,1.537,1.537,0,0,1,0,2.169,1.517,1.517,0,0,1-1.105.439M43.649,62.142a2.717,2.717,0,0,1-2.032-.794,2.967,2.967,0,0,1-.775-2.168,3,3,0,0,1,.781-2.114,2.763,2.763,0,0,1,3.7-.253,2.788,2.788,0,0,1,.91,1.733l-.891.306q-.376-1.786-1.741-1.785a1.563,1.563,0,0,0-1.275.563,2.378,2.378,0,0,0-.462,1.551,2.341,2.341,0,0,0,.475,1.546,1.616,1.616,0,0,0,1.31.57,1.58,1.58,0,0,0,1.046-.341,2.972,2.972,0,0,0,.739-1.01l.753.505a2.709,2.709,0,0,1-2.537,1.691"
                            transform="translate(-40.842 -36.774)" fill="#fff"
                            fill-rule="evenodd" />
                        <path id="Tracciato_5" data-name="Tracciato 5"
                            d="M49.663,64.358h.975v-5.64h-.975Zm.957-6.979a.7.7,0,0,1-.951,0,.637.637,0,0,1,0-.916.7.7,0,0,1,.951,0,.639.639,0,0,1,0,.916ZM55.3,64.5q-1.6,0-1.6-1.822V59.565h-.929v-.847h.929l.2-1.679h.775v1.679h2.28v.847h-2.28V62.7q0,.916.658.917.611,0,1.092-1.07l.8.376a2.892,2.892,0,0,1-.8,1.146A1.707,1.707,0,0,1,55.3,64.5m4.582,2.468a1.423,1.423,0,0,1-1.292-.6l.6-.681a.869.869,0,0,0,.74.435.656.656,0,0,0,.54-.271,3.549,3.549,0,0,0,.447-.905l.224-.586h-.435l-2.138-5.64h1.044l1.81,4.84,1.763-4.84h1.045l-2.537,6.7a2.8,2.8,0,0,1-.765,1.2,1.624,1.624,0,0,1-1.046.347"
                            transform="translate(-41.885 -39.131)" fill="#fff"
                            fill-rule="evenodd" />
                    </g>
                </g>
            </g>
        </g>
    </g>
</svg>